REM DIRINDEX 1
REM DIRNAME folder01
TITLE ""
FILE "Disk2Track16.mp3" MP3
  TRACK 01 AUDIO
    TITLE "1:cjc069_0528"
    INDEX 01 00:00:00
  TRACK 02 AUDIO
    TITLE "1:cjc069_0529"
    INDEX 01 00:06:43
  TRACK 03 AUDIO
    TITLE "1:cjc069_0530"
    INDEX 01 00:20:08
  TRACK 04 AUDIO
    TITLE "1:cjc069_0531"
    INDEX 01 00:40:50
  TRACK 05 AUDIO
    TITLE "0:"
    INDEX 01 00:55:59
